<?xml version="1.0" encoding="UTF-8"?>
<svg version="1.1" xmlns="http://www.w3.org/2000/svg" width="512" height="512">
<path d="M0 0 C1.18142578 -0.01891296 1.18142578 -0.01891296 2.38671875 -0.03820801 C3.22847656 -0.03011108 4.07023437 -0.02201416 4.9375 -0.01367188 C5.81019531 -0.01749878 6.68289062 -0.02132568 7.58203125 -0.02526855 C9.42449092 -0.02798678 11.26698924 -0.02063182 13.109375 -0.00390625 C15.92795934 0.01750565 18.74399485 -0.00370989 21.5625 -0.02929688 C23.35417229 -0.02665358 25.14584299 -0.02152857 26.9375 -0.01367188 C27.77925781 -0.0217688 28.62101562 -0.02986572 29.48828125 -0.03820801 C30.27589844 -0.02559937 31.06351562 -0.01299072 31.875 0 C32.90947266 0.00477356 32.90947266 0.00477356 33.96484375 0.00964355 C37.01169445 0.7941699 37.99082814 2.02014093 39.9375 4.51757812 C41.53646439 7.67754959 42.82276981 10.94391998 44.11669922 14.23852539 C44.51419876 15.2265213 44.9116983 16.21451721 45.32124329 17.23245239 C46.63804111 20.51245991 47.94009101 23.79811605 49.2421875 27.08398438 C50.16610365 29.39374653 51.09093455 31.70314298 52.01663208 34.01219177 C54.21385616 39.49931812 56.40186797 44.99005931 58.58544171 50.48262686 C61.25358642 57.19257887 63.93544233 63.89703623 66.6171875 70.6015625 C73.21058402 87.09317 79.78619762 103.59185373 86.34912682 120.09560871 C87.68064802 123.44267503 89.01404215 126.7889928 90.34793472 130.13511467 C91.23334112 132.35847143 92.11585868 134.58295986 92.9982605 136.80751038 C93.51706951 138.10928729 94.03603021 139.41100376 94.55517578 140.71264648 C94.9956424 141.82087265 95.43610901 142.92909882 95.8899231 144.07090759 C96.71661164 146.42059313 96.71661164 146.42059313 97.9375 147.51757812 C98.63827667 145.74565094 98.63827667 145.74565094 99.35321045 143.93792725 C103.75596474 132.80944501 108.16962108 121.6853422 112.59400558 110.56544113 C114.86830866 104.84836337 117.13873455 99.12980879 119.40039062 93.40771484 C121.58289052 87.8863038 123.77545494 82.36898983 125.97507477 76.85437775 C126.81275871 74.74907635 127.64679744 72.64232078 128.4771347 70.53411102 C129.64019693 67.5829429 130.81607824 64.6371974 131.99511719 61.69238281 C132.33606415 60.81844376 132.67701111 59.9445047 133.02828979 59.04408264 C136.17797138 51.24975448 136.17797138 51.24975448 139.9375 48.51757812 C141.91015625 48.00964355 141.91015625 48.00964355 144 48 C144.78761719 47.98739136 145.57523438 47.97478271 146.38671875 47.96179199 C147.22847656 47.96988892 148.07023438 47.97798584 148.9375 47.98632812 C149.81019531 47.98250122 150.68289062 47.97867432 151.58203125 47.97473145 C153.42449092 47.97201322 155.26698924 47.97936818 157.109375 47.99609375 C159.92795934 48.01750565 162.74399485 47.99629011 165.5625 47.97070312 C167.35417229 47.97334642 169.14584299 47.97847143 170.9375 47.98632812 C171.77925781 47.9782312 172.62101563 47.97013428 173.48828125 47.96179199 C174.27589844 47.97440063 175.06351563 47.98700928 175.875 48 C176.90947266 48.00477356 176.90947266 48.00477356 177.96484375 48.00964355 C180.99240373 48.78920278 182.00105589 50.04798163 183.9375 52.51757812 C185.45557896 55.4972844 186.66517328 58.57875452 187.87988281 61.69238281 C188.2511026 62.61955612 188.62232239 63.54672943 189.00479126 64.5019989 C190.22658754 67.56066205 191.43363189 70.62492169 192.640625 73.68945312 C193.48597424 75.81401927 194.33223918 77.93822127 195.17938232 80.06207275 C197.40459184 85.64798505 199.61732923 91.23875663 201.82751465 96.83062744 C204.08583819 102.53785556 206.3559096 108.24040549 208.625 113.94335938 C213.07401708 125.13021566 217.50987353 136.32224012 221.9375 147.51757812 C225.04573079 141.51812798 227.67116358 135.43894831 230.1484375 129.15551758 C230.74950569 127.64356056 230.74950569 127.64356056 231.36271667 126.10105896 C232.68254409 122.7789323 233.99745084 119.45488003 235.3125 116.13085938 C236.24173768 113.79023354 237.17135052 111.44975661 238.10131836 109.10942078 C240.55247527 102.93876836 242.99976859 96.76659372 245.44586182 90.59393311 C253.25315927 70.89255828 261.07088965 51.19535714 268.9375 31.51757812 C269.29106567 30.63255363 269.64463135 29.74752914 270.00891113 28.83568573 C271.78384968 24.39641768 273.56770972 19.96106038 275.37301636 15.53404808 C276.09707703 13.75418619 276.81250873 11.97082142 277.52758789 10.18733215 C277.94516357 9.17249252 278.36273926 8.15765289 278.79296875 7.11206055 C279.31346802 5.83343391 279.31346802 5.83343391 279.84448242 4.52897644 C280.9375 2.51757813 280.9375 2.51757813 283.9375 0.51757812 C286.93614744 0.29696666 289.83957174 0.18952514 292.83984375 0.18164062 C293.71395401 0.17498383 294.58806427 0.16832703 295.48866272 0.16146851 C297.33706559 0.15134524 299.18550498 0.14665139 301.03393555 0.14697266 C303.86112687 0.14259958 306.68675682 0.1062781 309.51367188 0.06835938 C311.30989049 0.06249111 313.10611653 0.05852178 314.90234375 0.05664062 C315.74723862 0.04226959 316.59213348 0.02789856 317.46263123 0.01309204 C318.2534761 0.0192453 319.04432098 0.02539856 319.85913086 0.03173828 C320.5517955 0.02888824 321.24446014 0.02603821 321.95811462 0.02310181 C325.01544561 0.78686302 325.9895241 2.01764977 327.9375 4.51757812 C329.52543461 7.65136904 330.80156731 10.89088661 332.08496094 14.15917969 C332.47924789 15.13914413 332.87353485 16.11910858 333.2797699 17.12876892 C334.5869568 20.38474357 335.87938545 23.64636935 337.171875 26.90820312 C338.0909999 29.20598713 339.0110401 31.5034052 339.9319458 33.80047607 C342.11970589 39.26394045 344.29824763 44.73100858 346.47235799 50.19991755 C349.11964728 56.85760693 351.78070686 63.50977118 354.44140625 70.16210938 C355.38983952 72.53573903 356.33820401 74.90939616 357.28649902 77.28308105 C359.16282021 81.97922168 361.04222144 86.6741142 362.92346191 91.36828613 C366.83718149 101.14685674 370.73750352 110.92660649 374.4670372 120.77719498 C375.88929132 124.5309501 377.33076376 128.2771862 378.77353668 132.02309418 C379.42478629 133.73237962 380.06565036 135.44566557 380.69503021 137.16312408 C384.73295007 148.82523369 384.73295007 148.82523369 393.97369385 156.51812744 C396.56495753 157.83691354 398.06364179 159.55474068 399.328125 162.16992188 C400.69616265 167.4403746 400.52237948 172.92247949 400.45898438 178.33300781 C400.43754649 180.5128505 400.45883499 182.68939875 400.484375 184.86914062 C400.51048014 197.82862302 400.51048014 197.82862302 395.9375 203.51757812 C391.45284581 207.67408688 388.24228924 208.63834833 382.22383118 208.67579651 C381.03331146 208.68558533 379.84279175 208.69537415 378.61619568 208.70545959 C377.30852737 208.71121506 376.00085907 208.71697052 374.65356445 208.72290039 C373.26397409 208.7324796 371.87438664 208.74248971 370.48480225 208.75289917 C366.7103255 208.7799497 362.93583625 208.80095846 359.16131616 208.82090116 C355.21748081 208.84275979 351.27368401 208.87014908 347.32987976 208.8969574 C339.86077325 208.94688594 332.39164535 208.99182417 324.92249697 209.03497976 C316.41954079 209.08435075 307.91662329 209.1392694 299.41370451 209.19465935 C281.92167209 209.30848188 264.42960377 209.41532034 246.9375 209.51757812 C252.52566565 223.56491292 258.11483302 237.61184884 263.70519924 251.65830803 C266.30076987 258.18005582 268.89601023 264.70193468 271.49047852 271.22412109 C273.99245341 277.51378738 276.49534144 283.80308956 278.99879646 290.0921669 C279.95562298 292.49630726 280.91213907 294.90057119 281.86834526 297.30495834 C283.20365448 300.66245103 284.54004879 304.01950982 285.87670898 307.37646484 C286.27519547 308.37915405 286.67368195 309.38184326 287.08424377 310.41491699 C287.44742706 311.32639496 287.81061035 312.23787292 288.18479919 313.17697144 C288.50097419 313.97155699 288.81714918 314.76614254 289.14290524 315.58480644 C289.92344652 317.55074477 289.92344652 317.55074477 290.9375 319.51757812 C292.82164354 319.86041606 294.72180419 320.11705129 296.625 320.33007812 C302.36856336 321.21003023 305.08497022 322.17113427 308.9375 326.51757812 C312.1256945 331.62529848 312.39193676 335.77105709 312.37109375 341.60742188 C312.3763356 342.47017227 312.38157745 343.33292267 312.38697815 344.22181702 C312.3933785 346.03971281 312.39208717 347.85765012 312.38354492 349.67553711 C312.3750362 352.44330238 312.40382063 355.20900081 312.43554688 357.9765625 C312.43715925 359.74934834 312.43658065 361.52213781 312.43359375 363.29492188 C312.45044472 364.52492165 312.45044472 364.52492165 312.46763611 365.7797699 C312.398957 371.49709358 311.20496452 374.80315248 307.9375 379.51757812 C303.81736634 383.33623859 300.77840763 384.64003242 295.21504593 384.6517992 C294.23803891 384.65625705 293.2610319 384.66071489 292.25441861 384.66530782 C291.17846645 384.66512346 290.10251429 384.66493909 288.99395752 384.66474915 C287.28242906 384.67026418 287.28242906 384.67026418 285.53632426 384.67589062 C282.36416945 384.68501812 279.19204504 384.6896273 276.01987934 384.69227993 C272.60053516 384.69618316 269.18120596 384.70576145 265.76187134 384.7144928 C257.50199032 384.73425609 249.24210808 384.74432298 240.98220932 384.75322059 C237.09296407 384.75760347 233.20372019 384.76297026 229.31447601 384.76820946 C216.38678393 384.78522115 203.4590927 384.79971572 190.53139114 384.8069582 C187.17652638 384.80886811 183.82166162 384.81078844 180.46679688 384.81274414 C179.63295742 384.81322788 178.79911796 384.81371162 177.94001064 384.81421002 C164.42984764 384.82251181 150.91977315 384.84785148 137.40964881 384.88032482 C123.54087605 384.91338862 109.67214828 384.93140632 95.80333591 384.93460244 C88.01575912 384.93676811 80.2283114 384.94552502 72.44077301 384.97106361 C65.80911519 384.99276132 59.1776178 385.00082565 52.54592851 384.99109683 C49.16264529 384.98654934 45.77996177 384.99064146 42.39667892 385.00785828 C38.72716403 385.02548852 35.05849179 385.01851361 31.38897705 385.00532532 C29.78843314 385.02177919 29.78843314 385.02177919 28.15555501 385.03856546 C21.85603959 384.98382231 18.07189016 384.24605085 12.9375 380.51757812 C7.98684915 375.17608642 7.76123606 370.7520377 7.69921875 363.72070312 C7.691147 362.85370789 7.68307526 361.98671265 7.67475891 361.09344482 C7.66093059 359.25762931 7.65020283 357.42178823 7.64233398 355.5859375 C7.62514907 352.7918155 7.58125588 349.99888569 7.53710938 347.20507812 C7.52697936 345.41862846 7.51846422 343.63216877 7.51171875 341.84570312 C7.48545662 340.60158661 7.48545662 340.60158661 7.45866394 339.33233643 C7.48399565 332.48658492 9.41438554 328.43492922 13.9375 323.20507812 C17.23318701 321.35125418 19.07663208 321.31047488 22.79414368 321.03721619 C27.27077814 320.35004151 27.27077814 320.35004151 30.71678734 317.63882637 C32.14060087 314.98472148 33.20719483 312.34869218 34.23120117 309.51586914 C34.65075073 308.47676392 35.07030029 307.43765869 35.50256348 306.36706543 C36.87508583 302.93494546 38.17731389 299.48047161 39.48046875 296.02148438 C40.42079768 293.63090884 41.36538401 291.24200394 42.31404114 288.85472107 C44.54426773 283.21226075 46.73064054 277.55459822 48.89663821 271.88722795 C51.3612174 265.44603335 53.88169719 259.02722697 56.40673482 252.60954392 C60.32922817 242.63634589 64.22048002 232.65138778 68.06713867 222.64868164 C68.44677261 221.66208054 68.82640656 220.67547943 69.21754456 219.65898132 C71.15308402 214.61558136 71.15308402 214.61558136 72.9375 209.51757812 C72.2172763 209.51611156 71.49705259 209.514645 70.75500393 209.513134 C53.21915729 209.47606 35.68352159 209.41703749 18.14783382 209.33367538 C9.66764451 209.29388944 1.18754793 209.26149471 -7.29272461 209.24658203 C-14.68533404 209.23356318 -22.07773937 209.20659267 -29.47023386 209.16296506 C-33.38347092 209.14035533 -37.29645631 209.12466714 -41.20976448 209.12569427 C-44.89612395 209.12644119 -48.58192719 209.10847848 -52.2681427 209.07641029 C-54.25989422 209.06388268 -56.25173916 209.07097289 -58.24351501 209.07872009 C-65.05451397 208.99949042 -69.57516872 208.69932235 -75.0625 204.51757812 C-81.06968824 198.03613818 -80.31262321 191.35061375 -80.35766602 183.00390625 C-80.36916725 181.52008514 -80.38959 180.03630481 -80.41918945 178.55273438 C-80.4621173 176.40010692 -80.47806951 174.24870688 -80.48828125 172.09570312 C-80.50286377 170.81083008 -80.51744629 169.52595703 -80.5324707 168.20214844 C-79.8294587 162.69053431 -77.68809748 159.0212558 -73.5625 155.20507812 C-71.0625 153.51757813 -71.0625 153.51757813 -69.0316124 152.66420174 C-66.5576011 151.22357307 -66.10634766 150.12144106 -65.05670166 147.48410034 C-64.71251694 146.63884293 -64.36833221 145.79358551 -64.01371765 144.92271423 C-63.65115372 143.99221756 -63.28858978 143.06172089 -62.91503906 142.10302734 C-62.52075211 141.12335495 -62.12646515 140.14368256 -61.7202301 139.13432312 C-60.40973908 135.86871807 -59.11901864 132.59566174 -57.828125 129.32226562 C-56.90930384 127.02150227 -55.98925874 124.72122735 -55.0680542 122.42141724 C-52.87774671 116.9447125 -50.69974958 111.46321603 -48.52764201 105.97927678 C-45.88327216 99.30496649 -43.22089579 92.63787526 -40.55859375 85.97070312 C-30.42945638 60.60507672 -30.42945638 60.60507672 -20.40402603 35.19836998 C-18.92519708 31.4280558 -17.4390481 27.66065187 -15.95180511 23.89365005 C-15.27324643 22.1686372 -14.59847205 20.44213021 -13.92777252 18.71404648 C-13.01804954 16.37022772 -12.09595966 14.03164618 -11.17089844 11.69384766 C-10.91228279 11.01713139 -10.65366714 10.34041512 -10.38721466 9.64319229 C-8.30491359 4.44034358 -6.08535366 0.02808078 0 0 Z M5.9375 16.51757812 C0.9215581 27.01970648 -2.87350183 37.52145793 -7.0625 48.51757812 C8.1175 48.51757812 23.2975 48.51757812 38.9375 48.51757812 C37.349375 44.35132813 35.76125 40.18507813 34.125 35.89257812 C33.6302417 34.58981934 33.1354834 33.28706055 32.62573242 31.94482422 C32.22717041 30.90406738 31.8286084 29.86331055 31.41796875 28.79101562 C30.81311646 27.20426025 30.81311646 27.20426025 30.19604492 25.58544922 C28.92863172 22.4959605 27.43090395 19.50438602 25.9375 16.51757812 C19.3375 16.51757812 12.7375 16.51757812 5.9375 16.51757812 Z M293.9375 16.51757812 C288.9215581 27.01970648 285.12649817 37.52145793 280.9375 48.51757812 C296.1175 48.51757812 311.2975 48.51757812 326.9375 48.51757812 C325.349375 44.35132813 323.76125 40.18507813 322.125 35.89257812 C321.6302417 34.58981934 321.1354834 33.28706055 320.62573242 31.94482422 C320.22717041 30.90406738 319.8286084 29.86331055 319.41796875 28.79101562 C318.81311646 27.20426025 318.81311646 27.20426025 318.19604492 25.58544922 C316.92863172 22.4959605 315.43090395 19.50438602 313.9375 16.51757812 C307.3375 16.51757812 300.7375 16.51757812 293.9375 16.51757812 Z M-13.0625 64.51757812 C-15.62952666 69.54161601 -17.9775222 74.54934422 -20.078125 79.79101562 C-20.46916412 80.76574326 -20.46916412 80.76574326 -20.86810303 81.76016235 C-21.41083136 83.11563627 -21.95185777 84.47179283 -22.49121094 85.82861328 C-23.31968766 87.91064128 -24.15559932 89.9895793 -24.9921875 92.06835938 C-25.52127637 93.39240117 -26.04993809 94.71661376 -26.578125 96.04101562 C-27.05540039 97.23645996 -27.53267578 98.4319043 -28.02441406 99.66357422 C-29.17644017 102.32467775 -29.17644017 102.32467775 -29.0625 104.51757812 C0.6375 104.51757812 30.3375 104.51757812 60.9375 104.51757812 C59.07805437 98.93924125 57.22669894 93.5490021 55.0546875 88.11132812 C54.79495148 87.46055298 54.53521545 86.80977783 54.26760864 86.13928223 C53.72606118 84.78440432 53.18323911 83.4300352 52.63916016 82.07617188 C51.80370738 79.99568228 50.97389716 77.91300061 50.14453125 75.83007812 C49.61491558 74.50702841 49.08497967 73.18410684 48.5546875 71.86132812 C48.07628418 70.66701172 47.59788086 69.47269531 47.10498047 68.2421875 C46.19400121 65.65026236 46.19400121 65.65026236 44.9375 64.51757812 C43.12694975 64.42381759 41.31272799 64.40013703 39.49975586 64.40405273 C38.33862778 64.40412827 37.17749969 64.4042038 35.98118591 64.40428162 C34.717668 64.4094429 33.45415009 64.41460419 32.15234375 64.41992188 C30.22341026 64.4220443 30.22341026 64.4220443 28.25550842 64.42420959 C24.83106557 64.42803394 21.40666491 64.43786351 17.98223877 64.44891357 C14.49011811 64.45912948 10.99799066 64.4637076 7.50585938 64.46875 C0.64972222 64.47948586 -6.20638687 64.49656128 -13.0625 64.51757812 Z M149.9375 64.51757812 C145.80282034 73.27074444 142.16407107 82.20352085 138.57885742 91.19116211 C137.61368174 93.60842448 136.64200293 96.02300751 135.66992188 98.4375 C135.05429786 99.97575558 134.43904922 101.51416145 133.82421875 103.05273438 C133.53367111 103.77348648 133.24312347 104.49423859 132.94377136 105.23683167 C131.45057549 108.76757473 131.45057549 108.76757473 130.9375 112.51757812 C150.0775 112.51757812 169.2175 112.51757812 188.9375 112.51757812 C186.70258675 105.71425767 186.70258675 105.71425767 184.23583984 99.0234375 C183.93898285 98.2665564 183.64212585 97.50967529 183.33627319 96.7298584 C183.02678741 95.94824341 182.71730164 95.16662842 182.3984375 94.36132812 C182.07211334 93.53298462 181.74578918 92.70464111 181.40957642 91.85119629 C180.72670557 90.11973246 180.04264146 88.38873879 179.35742188 86.65820312 C178.30483627 83.99821108 177.2576776 81.33612508 176.2109375 78.67382812 C175.54459308 76.98620085 174.87793782 75.29869627 174.2109375 73.61132812 C173.89740326 72.81351929 173.58386902 72.01571045 173.26083374 71.19372559 C172.0402739 67.58999494 172.0402739 67.58999494 169.9375 64.51757812 C168.4487814 64.4308838 166.956055 64.41054319 165.46484375 64.41992188 C164.11616211 64.42475586 164.11616211 64.42475586 162.74023438 64.4296875 C161.79470703 64.43806641 160.84917969 64.44644531 159.875 64.45507812 C158.92560547 64.45958984 157.97621094 64.46410156 156.99804688 64.46875 C154.64446935 64.48057702 152.29101523 64.49705787 149.9375 64.51757812 Z M274.9375 64.51757812 C272.37047334 69.54161601 270.0224778 74.54934422 267.921875 79.79101562 C267.53083588 80.76574326 267.53083588 80.76574326 267.13189697 81.76016235 C266.58916864 83.11563627 266.04814223 84.47179283 265.50878906 85.82861328 C264.68031234 87.91064128 263.84440068 89.9895793 263.0078125 92.06835938 C262.47872363 93.39240117 261.95006191 94.71661376 261.421875 96.04101562 C260.94459961 97.23645996 260.46732422 98.4319043 259.97558594 99.66357422 C258.82355983 102.32467775 258.82355983 102.32467775 258.9375 104.51757812 C288.6375 104.51757812 318.3375 104.51757812 348.9375 104.51757812 C347.07805437 98.93924125 345.22669894 93.5490021 343.0546875 88.11132812 C342.79495148 87.46055298 342.53521545 86.80977783 342.26760864 86.13928223 C341.72606118 84.78440432 341.18323911 83.4300352 340.63916016 82.07617188 C339.80370738 79.99568228 338.97389716 77.91300061 338.14453125 75.83007812 C337.61491558 74.50702841 337.08497967 73.18410684 336.5546875 71.86132812 C336.07628418 70.66701172 335.59788086 69.47269531 335.10498047 68.2421875 C334.19400121 65.65026236 334.19400121 65.65026236 332.9375 64.51757812 C331.12694975 64.42381759 329.31272799 64.40013703 327.49975586 64.40405273 C326.33862778 64.40412827 325.17749969 64.4042038 323.98118591 64.40428162 C322.717668 64.4094429 321.45415009 64.41460419 320.15234375 64.41992188 C318.22341026 64.4220443 318.22341026 64.4220443 316.25550842 64.42420959 C312.83106557 64.42803394 309.40666491 64.43786351 305.98223877 64.44891357 C302.49011811 64.45912948 298.99799066 64.4637076 295.50585938 64.46875 C288.64972222 64.47948586 281.79361313 64.49656128 274.9375 64.51757812 Z M-36.0625 120.51757812 C-44.17794222 136.11018118 -44.17794222 136.11018118 -48.0625 152.51757812 C-5.8225 152.51757812 36.4175 152.51757812 79.9375 152.51757812 C76.66403145 141.6060163 72.25088727 131.06141367 67.9375 120.51757812 C33.6175 120.51757812 -0.7025 120.51757812 -36.0625 120.51757812 Z M251.9375 120.51757812 C243.82205778 136.11018118 243.82205778 136.11018118 239.9375 152.51757812 C282.1775 152.51757812 324.4175 152.51757812 367.9375 152.51757812 C364.66403145 141.6060163 360.25088727 131.06141367 355.9375 120.51757812 C321.6175 120.51757812 287.2975 120.51757812 251.9375 120.51757812 Z M123.9375 128.51757812 C115.82205778 144.11018118 115.82205778 144.11018118 111.9375 160.51757812 C143.6175 160.51757812 175.2975 160.51757812 207.9375 160.51757812 C204.66403145 149.6060163 200.25088727 139.06141367 195.9375 128.51757812 C172.1775 128.51757812 148.4175 128.51757812 123.9375 128.51757812 Z M-64.0625 170.51757812 C-64.37234531 172.61571193 -64.37234531 172.61571193 -64.328125 175.01757812 C-64.33070312 175.90445313 -64.33328125 176.79132813 -64.3359375 177.70507812 C-64.32820313 178.63320312 -64.32046875 179.56132812 -64.3125 180.51757812 C-64.32023437 181.44570312 -64.32796875 182.37382812 -64.3359375 183.33007812 C-64.33335938 184.21695313 -64.33078125 185.10382813 -64.328125 186.01757812 C-64.32586914 186.83226562 -64.32361328 187.64695313 -64.32128906 188.48632812 C-64.24424293 190.74388264 -64.24424293 190.74388264 -62.0625 192.51757812 C-59.46931876 192.81691406 -59.46931876 192.81691406 -56.39315796 192.75808716 C-54.58419792 192.76221115 -54.58419792 192.76221115 -52.73869324 192.76641846 C-51.3952932 192.75933973 -50.05189417 192.75207011 -48.70849609 192.74462891 C-47.29935209 192.744065 -45.8902075 192.74438095 -44.48106384 192.74551392 C-40.64860872 192.74608923 -36.81627804 192.73430615 -32.98385191 192.720366 C-28.98131658 192.7078883 -24.97877859 192.70669049 -20.97622681 192.70431519 C-13.39370721 192.69809169 -5.81124508 192.68166915 1.77124918 192.66161621 C10.40232036 192.63928422 19.03339425 192.62827058 27.66448712 192.61822534 C45.4221907 192.59730364 63.17984073 192.56211082 80.9375 192.51757812 C82.44022459 188.70614635 83.93922313 184.89326025 85.4375 181.08007812 C85.86675781 179.99146484 86.29601562 178.90285156 86.73828125 177.78125 C87.14433594 176.74677734 87.55039063 175.71230469 87.96875 174.64648438 C88.53432617 173.20897827 88.53432617 173.20897827 89.11132812 171.74243164 C89.9955186 169.75688525 89.9955186 169.75688525 89.9375 168.51757812 C70.15371324 168.47090889 50.3699376 168.43561424 30.58610725 168.41395378 C21.40064787 168.40363026 12.21522263 168.38954943 3.02978516 168.36669922 C-4.97391473 168.34679821 -12.97758989 168.33386952 -20.98131382 168.32940114 C-25.22132688 168.32678816 -29.46126918 168.32062434 -33.70125961 168.30611801 C-37.68862129 168.29258598 -41.67588277 168.28834655 -45.66326523 168.29136276 C-47.12985783 168.29081063 -48.59645363 168.28680715 -50.06302643 168.27916718 C-52.05915428 168.26927493 -54.05533538 168.27278723 -56.05148315 168.27706909 C-57.17053984 168.27522551 -58.28959652 168.27338192 -59.44256401 168.27148247 C-62.22171697 168.25154244 -62.22171697 168.25154244 -64.0625 170.51757812 Z M229.9375 168.51757812 C230.33582031 169.57976562 230.73414063 170.64195312 231.14453125 171.73632812 C233.7421875 178.66341146 236.33984375 185.59049479 238.9375 192.51757812 C257.5478318 192.56424915 276.15815176 192.59954289 294.76852989 192.62120247 C303.40918303 192.63152561 312.04979985 192.64560571 320.69042969 192.66845703 C328.21949017 192.68835921 335.74852437 192.701287 343.27761042 192.70575511 C347.26611435 192.70836789 351.25454305 192.71453045 355.24302292 192.72903824 C358.99400282 192.74257212 362.74487622 192.74680932 366.49587822 192.74379349 C367.87539307 192.74434554 369.25491134 192.74834794 370.63440514 192.75598907 C372.5122968 192.76588417 374.3902451 192.76236835 376.26815796 192.75808716 C377.32084555 192.75993074 378.37353313 192.76177433 379.45812035 192.76367378 C382.11296589 192.76465027 382.11296589 192.76465027 383.9375 190.51757812 C384.24734531 188.41944432 384.24734531 188.41944432 384.203125 186.01757812 C384.20570313 185.13070312 384.20828125 184.24382812 384.2109375 183.33007812 C384.20320312 182.40195313 384.19546875 181.47382813 384.1875 180.51757812 C384.19523438 179.58945313 384.20296875 178.66132813 384.2109375 177.70507812 C384.20835937 176.81820312 384.20578125 175.93132812 384.203125 175.01757812 C384.19974121 173.79554688 384.19974121 173.79554688 384.19628906 172.54882812 C384.11924293 170.29127361 384.11924293 170.29127361 381.9375 168.51757812 C379.1934376 168.21790407 379.1934376 168.21790407 375.92648315 168.27706909 C374.00393204 168.2729451 374.00393204 168.2729451 372.0425415 168.26873779 C370.61413482 168.27581657 369.18572906 168.2830862 367.75732422 168.29052734 C366.25951139 168.29109123 364.76169801 168.29077534 363.2638855 168.28964233 C359.18970559 168.28906694 355.11564271 168.3008513 351.04149008 168.31479025 C346.78670941 168.32726664 342.53192626 168.32846566 338.27713013 168.33084106 C330.21649661 168.33706495 322.15591715 168.35348802 314.09530747 168.37354004 C304.92011072 168.39587083 295.74491143 168.40688537 286.56969428 168.41693091 C267.69226551 168.43785348 248.81488709 168.47304706 229.9375 168.51757812 Z M104.9375 176.51757812 C96.6459204 196.40429873 96.6459204 196.40429873 88.9375 216.51757812 C135.7975 216.51757812 182.6575 216.51757812 230.9375 216.51757812 C225.78240265 203.11432503 220.59435425 189.71690471 214.9375 176.51757812 C178.6375 176.51757812 142.3375 176.51757812 104.9375 176.51757812 Z M82.9375 232.51757812 C82.29638692 233.78777109 81.65666177 235.05866466 81.01751709 236.32984924 C80.66112026 237.03750207 80.30472343 237.7451549 79.9375267 238.47425175 C78.68448156 241.03456358 77.61147087 243.63884892 76.578125 246.29492188 C75.98837891 247.80602539 75.98837891 247.80602539 75.38671875 249.34765625 C74.99097656 250.37310547 74.59523437 251.39855469 74.1875 252.45507812 C73.77628906 253.50759766 73.36507812 254.56011719 72.94140625 255.64453125 C70.92097371 259.96070167 70.92097371 259.96070167 69.9375 264.51757812 C129.3375 264.51757812 188.7375 264.51757812 249.9375 264.51757812 C245.36634178 252.26268957 245.36634178 252.26268957 240.625 240.08007812 C240.37427734 239.44521484 240.12355469 238.81035156 239.86523438 238.15625 C238.78182291 235.10646425 238.78182291 235.10646425 236.9375 232.51757812 C234.95055149 232.42087013 232.96010987 232.39570761 230.97080994 232.39732361 C229.67365555 232.39594894 228.37650116 232.39457428 227.04003906 232.39315796 C225.5891111 232.39669758 224.13818337 232.40033239 222.68725586 232.40405273 C221.16988629 232.4043346 219.65251658 232.40417689 218.13514709 232.40361023 C214.00309484 232.40332222 209.87107137 232.40921955 205.73902583 232.41618419 C201.42551108 232.4224171 197.11199573 232.42302147 192.79847717 232.42420959 C184.62449883 232.4273231 176.45053379 232.43553673 168.27656132 232.44555908 C158.97321031 232.45671964 149.66985868 232.46223053 140.36650264 232.46725452 C121.22349421 232.47771933 102.08049817 232.49531913 82.9375 232.51757812 Z M62.9375 280.51757812 C52.82327313 300.02028308 52.82327313 300.02028308 47.9375 320.51757812 C121.8575 320.51757812 195.7775 320.51757812 271.9375 320.51757812 C267.84566432 306.87812584 262.22610555 293.739092 256.9375 280.51757812 C192.9175 280.51757812 128.8975 280.51757812 62.9375 280.51757812 Z M23.9375 338.51757812 C23.62551461 341.39845736 23.62551461 341.39845736 23.671875 344.76757812 C23.66929688 346.01539063 23.66671875 347.26320313 23.6640625 348.54882812 C23.67179687 349.85851562 23.67953125 351.16820312 23.6875 352.51757812 C23.67976563 353.82726562 23.67203125 355.13695312 23.6640625 356.48632812 C23.66664062 357.73414063 23.66921875 358.98195313 23.671875 360.26757812 C23.67413086 361.41742188 23.67638672 362.56726563 23.67871094 363.75195312 C23.65406324 366.65957644 23.65406324 366.65957644 25.9375 368.51757812 C27.97888504 368.82007545 27.97888504 368.82007545 30.36346436 368.76926041 C31.76791243 368.77708365 31.76791243 368.77708365 33.20073318 368.78506494 C34.23631741 368.78060349 35.27190163 368.77614205 36.33886719 368.77154541 C37.98090181 368.77622538 37.98090181 368.77622538 39.65610886 368.7809999 C43.34891793 368.78902002 47.04156451 368.78264063 50.734375 368.77636719 C53.37179043 368.77907527 56.00919441 368.78256242 58.64660645 368.7869873 C65.08132231 368.79589871 71.51599162 368.79395155 77.95070934 368.78816202 C83.17852855 368.78365239 88.40633468 368.78302959 93.63415527 368.78520966 C94.37710366 368.78551612 95.12005205 368.78582259 95.88551402 368.78613834 C97.3946155 368.78677777 98.90371697 368.78742619 100.41281843 368.78808352 C114.57662012 368.79379193 128.74039595 368.78722093 142.9041934 368.77648279 C155.0676523 368.76754681 167.23107304 368.76909871 179.39453125 368.77832031 C193.50630446 368.78901394 207.618055 368.79324256 221.7298317 368.78709579 C223.2335027 368.78645866 224.73717371 368.78582992 226.24084473 368.78520966 C226.98075488 368.7849011 227.72066503 368.78459255 228.4829967 368.78427465 C233.70689102 368.78254498 238.93077099 368.78546865 244.15466309 368.79016876 C250.51746964 368.79576753 256.88022682 368.79428239 263.24302769 368.78360727 C266.49184939 368.77833695 269.74057127 368.77738639 272.98939514 368.78290558 C276.50505794 368.78832949 280.02048523 368.78156538 283.53613281 368.77154541 C285.08950914 368.77823758 285.08950914 368.77823758 286.67426682 368.78506494 C287.61056553 368.77984944 288.54686424 368.77463395 289.51153564 368.76926041 C290.72995085 368.76877335 290.72995085 368.76877335 291.9729805 368.76827645 C294.17171394 368.69130309 294.17171394 368.69130309 295.9375 366.51757812 C296.24948539 363.63669889 296.24948539 363.63669889 296.203125 360.26757812 C296.20699219 358.39585937 296.20699219 358.39585937 296.2109375 356.48632812 C296.20320313 355.17664063 296.19546875 353.86695313 296.1875 352.51757812 C296.19523437 351.20789063 296.20296875 349.89820313 296.2109375 348.54882812 C296.20835937 347.30101562 296.20578125 346.05320312 296.203125 344.76757812 C296.19974121 343.0428125 296.19974121 343.0428125 296.19628906 341.28320312 C296.22093676 338.37557981 296.22093676 338.37557981 293.9375 336.51757812 C291.89611496 336.2150808 291.89611496 336.2150808 289.51153564 336.26589584 C288.10708757 336.2580726 288.10708757 336.2580726 286.67426682 336.25009131 C285.63868259 336.25455276 284.60309837 336.2590142 283.53613281 336.26361084 C281.89409819 336.25893087 281.89409819 336.25893087 280.21889114 336.25415635 C276.52608207 336.24613623 272.83343549 336.25251562 269.140625 336.25878906 C266.50320957 336.25608098 263.86580559 336.25259383 261.22839355 336.24816895 C254.79367769 336.23925754 248.35900838 336.2412047 241.92429066 336.24699423 C236.69647145 336.25150386 231.46866532 336.25212666 226.24084473 336.24994659 C225.49789634 336.24964013 224.75494795 336.24933366 223.98948598 336.24901791 C222.4803845 336.24837848 220.97128303 336.24773006 219.46218157 336.24707273 C205.29837988 336.24136432 191.13460405 336.24793532 176.9708066 336.25867346 C164.8073477 336.26760944 152.64392696 336.26605754 140.48046875 336.25683594 C126.36869554 336.24614231 112.256945 336.24191369 98.1451683 336.24806046 C96.6414973 336.24869759 95.13782629 336.24932633 93.63415527 336.24994659 C92.89424512 336.25025515 92.15433497 336.2505637 91.3920033 336.2508816 C86.16810898 336.25261127 80.94422901 336.2496876 75.72033691 336.24498749 C69.35753036 336.23938872 62.99477318 336.24087386 56.63197231 336.25154898 C53.38315061 336.2568193 50.13442873 336.25776986 46.88560486 336.25225067 C43.36994206 336.24682676 39.85451477 336.25359087 36.33886719 336.26361084 C34.78549086 336.25691867 34.78549086 336.25691867 33.20073318 336.25009131 C32.26443447 336.25530681 31.32813576 336.2605223 30.36346436 336.26589584 C29.14504915 336.2663829 29.14504915 336.2663829 27.9020195 336.2668798 C25.70328606 336.34385316 25.70328606 336.34385316 23.9375 338.51757812 Z " fill="#000000" transform="translate(96.0625,63.482421875)"/>
</svg>
