<?xml version="1.0" encoding="UTF-8"?>
<svg version="1.1" xmlns="http://www.w3.org/2000/svg" width="512" height="512">
<defs>
    <style type="text/css"><![CDATA[
      .cones {
        fill:red;
      }
    ]]></style>
  </defs>
<path d="M0 0 C89.76 0 179.52 0 272 0 C272 10.56 272 21.12 272 32 C182.24 32 92.48 32 0 32 C0 21.44 0 10.88 0 0 Z " fill="#000000" transform="translate(120,400)"/>
<path d="M0 0 C64.68 0 129.36 0 196 0 C211 37 211 37 211 40 C136.42 40 61.84 40 -15 40 C-12.20730501 26.03652506 -5.28860555 13.22151387 0 0 Z " fill="#000000" transform="translate(158,344)"/>
<path d="M0 0 C52.14 0 104.28 0 158 0 C170 30 170 30 170 32 C109.94 32 49.88 32 -12 32 C-8.39753171 21.19259513 -4.1512392 10.6087224 0 0 Z " fill="#000000" transform="translate(177,296)"/>
<path d="M0 0 C1.23750708 0.00138269 1.23750708 0.00138269 2.50001431 0.00279331 C3.44377422 0.00141865 4.38753414 0.00004398 5.35989285 -0.00137234 C6.925424 0.00402058 6.925424 0.00402058 8.52258205 0.00952244 C9.61512798 0.00937641 10.70767391 0.00923038 11.83332729 0.00907993 C15.46405899 0.00977961 19.09474012 0.01757454 22.72546291 0.02539158 C25.2351011 0.02725557 27.74473964 0.02867956 30.25437832 0.0296793 C36.1971526 0.03311435 42.1399105 0.0410051 48.08267635 0.05102879 C55.50982591 0.0632853 62.93697771 0.06866991 70.36413479 0.0742197 C83.6187014 0.08495972 96.87325287 0.101847 110.12780666 0.12304783 C110.92906687 1.87678699 111.72934886 3.6309731 112.52921963 5.38534641 C113.19786305 6.85056767 113.19786305 6.85056767 113.88001442 8.34538937 C115.35554891 11.63001538 116.70844013 14.93454 118.02233791 18.28711033 C118.50251369 19.51043064 118.98268948 20.73375095 119.47741604 21.99414158 C119.71742336 22.61015232 119.95743069 23.22616306 120.20471096 23.8608408 C120.95343128 25.78171968 121.70730226 27.700522 122.46179104 29.61914158 C126.12780666 38.98618558 126.12780666 38.98618558 126.12780666 40.12304783 C78.60780666 40.12304783 31.08780666 40.12304783 -17.87219334 40.12304783 C-10.74919868 21.12839542 -10.74919868 21.12839542 -7.05969334 11.68554783 C-6.46898045 10.16090916 -6.46898045 10.16090916 -5.86633396 8.6054697 C-5.49057224 7.64318455 -5.11481052 6.68089939 -4.72766209 5.68945408 C-4.3940366 4.83295261 -4.06041111 3.97645115 -3.71667576 3.09399509 C-2.4602891 0.16169977 -2.4602891 0.16169977 0 0 Z " fill="#000000" transform="translate(201.87219333648682,239.87695217132568)"/>
<path d="M0 0 C34.98 0 69.96 0 106 0 C118 29 118 29 118 32 C75.1 32 32.2 32 -12 32 C-9.76584401 20.82922005 -4.29816802 10.55004879 0 0 Z " fill="#000000" transform="translate(347,184)"/>
<path d="M0 0 C34.98 0 69.96 0 106 0 C118 29 118 29 118 32 C75.1 32 32.2 32 -12 32 C-9.76584401 20.82922005 -4.29816802 10.55004879 0 0 Z " fill="#000000" transform="translate(59,184)"/>
<path d="M0 0 C51.15 0 102.3 0 155 0 C155 7.92 155 15.84 155 24 C106.82 24 58.64 24 9 24 C0 2 0 2 0 0 Z " fill="#000000" transform="translate(325,232)"/>
<path d="M0 0 C51.15 0 102.3 0 155 0 C152.29814878 8.10555365 149.17316333 16.06709168 146 24 C97.82 24 49.64 24 0 24 C0 16.08 0 8.16 0 0 Z " fill="#000000" transform="translate(32,232)"/>
<path d="M0 0 C20.46 0 40.92 0 62 0 C64.475 6.22875 66.95 12.4575 69.5 18.875 C70.28310547 20.84065918 71.06621094 22.80631836 71.87304688 24.83154297 C72.48855223 26.3849838 73.10380414 27.9385251 73.71875 29.4921875 C74.04262695 30.30244385 74.36650391 31.1127002 74.70019531 31.94750977 C77 37.7718564 77 37.7718564 77 40 C46.64 40 16.28 40 -15 40 C-13.17110912 33.90369708 -11.43993599 28.29231481 -9.08203125 22.4609375 C-8.36237183 20.67115479 -8.36237183 20.67115479 -7.62817383 18.84521484 C-7.02900146 17.37004395 -6.4298291 15.89487305 -5.8125 14.375 C-3.894375 9.63125 -1.97625 4.8875 0 0 Z " fill="#000000" transform="translate(369,128)"/>
<path d="M0 0 C20.46 0 40.92 0 62 0 C64.475 6.22875 66.95 12.4575 69.5 18.875 C70.28310547 20.84065918 71.06621094 22.80631836 71.87304688 24.83154297 C72.48855223 26.3849838 73.10380414 27.9385251 73.71875 29.4921875 C74.04262695 30.30244385 74.36650391 31.1127002 74.70019531 31.94750977 C77 37.7718564 77 37.7718564 77 40 C46.64 40 16.28 40 -15 40 C-13.17110912 33.90369708 -11.43993599 28.29231481 -9.08203125 22.4609375 C-8.36237183 20.67115479 -8.36237183 20.67115479 -7.62817383 18.84521484 C-7.02900146 17.37004395 -6.4298291 15.89487305 -5.8125 14.375 C-3.894375 9.63125 -1.97625 4.8875 0 0 Z " fill="#000000" transform="translate(81,128)"/>
<path d="M0 0 C24.42 0 48.84 0 74 0 C86 29 86 29 86 32 C53.66 32 21.32 32 -12 32 C-9.76584401 20.82922005 -4.29816802 10.55004879 0 0 Z " fill="#000000" transform="translate(219,192)"/>
<path d="M0 0 C0.91644287 0.00523682 1.83288574 0.01047363 2.77709961 0.01586914 C4.26113281 0.02070312 4.26113281 0.02070312 5.77514648 0.02563477 C6.81606445 0.03401367 7.85698242 0.04239258 8.92944336 0.05102539 C10.49662109 0.05779297 10.49662109 0.05779297 12.09545898 0.06469727 C14.68600996 0.07652627 17.27644895 0.0930085 19.86694336 0.11352539 C22.74076162 5.69076176 25.24810947 11.29854393 27.53881836 17.13696289 C27.86609924 17.96434967 28.19338013 18.79173645 28.53057861 19.64419556 C29.21463231 21.37627061 29.8968832 23.10905866 30.57739258 24.8425293 C31.62302337 27.50400099 32.67624695 30.16238095 33.73022461 32.82055664 C34.39604183 34.50918032 35.06142233 36.19797628 35.72631836 37.88696289 C36.19965607 39.0806398 36.19965607 39.0806398 36.68255615 40.2984314 C38.86694336 45.88339925 38.86694336 45.88339925 38.86694336 48.11352539 C19.06694336 48.11352539 -0.73305664 48.11352539 -21.13305664 48.11352539 C-19.16912068 41.56707218 -17.17069308 35.36080739 -14.59399414 29.07836914 C-14.26766998 28.27363663 -13.94134583 27.46890411 -13.60513306 26.63978577 C-12.92324538 24.96096234 -12.23917639 23.28302333 -11.55297852 21.60595703 C-10.49864129 19.02800398 -9.45208334 16.44699042 -8.40649414 13.86547852 C-7.74027711 12.22792572 -7.07362652 10.59054924 -6.40649414 8.95336914 C-6.0929599 8.18057114 -5.77942566 7.40777313 -5.45639038 6.61155701 C-2.80594672 0.1493379 -2.80594672 0.1493379 0 0 Z " fill="#000000" transform="translate(247.133056640625,127.886474609375)"/>
<path d="M0 0 C0.91644287 0.00523682 1.83288574 0.01047363 2.77709961 0.01586914 C4.26113281 0.02070312 4.26113281 0.02070312 5.77514648 0.02563477 C6.81606445 0.03401367 7.85698242 0.04239258 8.92944336 0.05102539 C10.49662109 0.05779297 10.49662109 0.05779297 12.09545898 0.06469727 C14.68600996 0.07652627 17.27644895 0.0930085 19.86694336 0.11352539 C23.25955462 6.59528038 25.98425225 13.22918246 28.61694336 20.05102539 C29.0281543 21.10354492 29.43936523 22.15606445 29.86303711 23.24047852 C32.86694336 30.96979875 32.86694336 30.96979875 32.86694336 32.11352539 C17.02694336 32.11352539 1.18694336 32.11352539 -15.13305664 32.11352539 C-8.2546036 13.77098395 -8.2546036 13.77098395 -5.82055664 7.67602539 C-5.56983398 7.04116211 -5.31911133 6.40629883 -5.06079102 5.75219727 C-2.82117227 0.15014823 -2.82117227 0.15014823 0 0 Z " fill="#000000" transform="translate(391.133056640625,79.886474609375)"/>
<path d="M0 0 C0.91644287 0.00523682 1.83288574 0.01047363 2.77709961 0.01586914 C4.26113281 0.02070312 4.26113281 0.02070312 5.77514648 0.02563477 C6.81606445 0.03401367 7.85698242 0.04239258 8.92944336 0.05102539 C10.49662109 0.05779297 10.49662109 0.05779297 12.09545898 0.06469727 C14.68600996 0.07652627 17.27644895 0.0930085 19.86694336 0.11352539 C23.25955462 6.59528038 25.98425225 13.22918246 28.61694336 20.05102539 C29.0281543 21.10354492 29.43936523 22.15606445 29.86303711 23.24047852 C32.86694336 30.96979875 32.86694336 30.96979875 32.86694336 32.11352539 C17.02694336 32.11352539 1.18694336 32.11352539 -15.13305664 32.11352539 C-8.2546036 13.77098395 -8.2546036 13.77098395 -5.82055664 7.67602539 C-5.56983398 7.04116211 -5.31911133 6.40629883 -5.06079102 5.75219727 C-2.82117227 0.15014823 -2.82117227 0.15014823 0 0 Z " fill="#000000" transform="translate(103.133056640625,79.886474609375)"/>
</svg>
